STARTFONT 2.1
COMMENT
COMMENT Converted from OpenType font "CircularStd-Bold.otf" by "otf2bdf 3.0".
COMMENT
FONT -FreeType-Circular Std Bold-Medium-R-Normal--19-140-100-100-P-102-ISO10646-1
SIZE 14 100 100
FONTBOUNDINGBOX 31 23 -1 -5
STARTPROPERTIES 19
FOUNDRY "FreeType"
FAMILY_NAME "Circular Std Bold"
WEIGHT_NAME "Medium"
SLANT "R"
SETWIDTH_NAME "Normal"
ADD_STYLE_NAME ""
PIXEL_SIZE 19
POINT_SIZE 140
RESOLUTION_X 100
RESOLUTION_Y 100
SPACING "P"
AVERAGE_WIDTH 102
CHARSET_REGISTRY "ISO10646"
CHARSET_ENCODING "1"
FONT_ASCENT 18
FONT_DESCENT 5
COPYRIGHT "Generated in 2013 by FontLab Studio. Copyright info pending."
_OTF_FONTFILE "CircularStd-Bold.otf"
_OTF_PSNAME "CircularStd-Bold"
ENDPROPERTIES
CHARS 332
STARTCHAR 0000
ENCODING 0
SWIDTH 0 0
DWIDTH 0 0
BBX 0 0 0 0
BITMAP
ENDCHAR
STARTCHAR 000D
ENCODING 13
SWIDTH 257 0
DWIDTH 5 0
BBX 0 0 0 0
BITMAP
ENDCHAR
STARTCHAR 0020
ENCODING 32
SWIDTH 257 0
DWIDTH 5 0
BBX 0 0 0 0
BITMAP
ENDCHAR
STARTCHAR 0021
ENCODING 33
SWIDTH 308 0
DWIDTH 6 0
BBX 3 14 2 0
BITMAP
E0
E0
E0
E0
E0
C0
C0
C0
C0
C0
00
C0
E0
C0
ENDCHAR
STARTCHAR 0022
ENCODING 34
SWIDTH 411 0
DWIDTH 8 0
BBX 6 6 1 7
BITMAP
CC
FC
DC
CC
CC
48
ENDCHAR
STARTCHAR 0023
ENCODING 35
SWIDTH 720 0
DWIDTH 14 0
BBX 13 13 1 0
BITMAP
0C60
0CC0
0CC0
7FF8
7FF8
18C0
1980
1980
FFF0
FFF0
3180
3300
3300
ENDCHAR
STARTCHAR 0024
ENCODING 36
SWIDTH 617 0
DWIDTH 12 0
BBX 10 17 1 -2
BITMAP
0C00
0C00
1E00
7F80
7380
E180
E000
7C00
7F00
1F80
01C0
E1C0
F380
7F80
3E00
0C00
0C00
ENDCHAR
STARTCHAR 0025
ENCODING 37
SWIDTH 874 0
DWIDTH 17 0
BBX 15 13 1 0
BITMAP
7838
FC30
CC60
CCE0
FCC0
7980
0300
0338
067C
0CC6
1CC6
187C
3038
ENDCHAR
STARTCHAR 0026
ENCODING 38
SWIDTH 720 0
DWIDTH 14 0
BBX 12 14 1 0
BITMAP
1E00
3F00
7380
6380
7300
3F00
3E10
3E30
7770
E7E0
E3C0
F3E0
7FE0
3E70
ENDCHAR
STARTCHAR 0027
ENCODING 39
SWIDTH 205 0
DWIDTH 4 0
BBX 3 6 1 7
BITMAP
C0
E0
C0
C0
C0
40
ENDCHAR
STARTCHAR 0028
ENCODING 40
SWIDTH 308 0
DWIDTH 6 0
BBX 5 19 1 -3
BITMAP
10
18
30
70
60
E0
C0
C0
C0
C0
C0
C0
C0
E0
60
70
30
18
10
ENDCHAR
STARTCHAR 0029
ENCODING 41
SWIDTH 308 0
DWIDTH 6 0
BBX 6 19 0 -3
BITMAP
40
E0
70
30
38
18
18
18
1C
1C
1C
18
18
18
38
30
70
E0
40
ENDCHAR
STARTCHAR 002A
ENCODING 42
SWIDTH 462 0
DWIDTH 9 0
BBX 7 8 1 6
BITMAP
30
30
F6
FE
7C
7C
6C
44
ENDCHAR
STARTCHAR 002B
ENCODING 43
SWIDTH 565 0
DWIDTH 11 0
BBX 9 10 1 1
BITMAP
0C00
0C00
0C00
0C00
FF80
FF80
0C00
0C00
0C00
0C00
ENDCHAR
STARTCHAR 002C
ENCODING 44
SWIDTH 308 0
DWIDTH 6 0
BBX 4 6 1 -3
BITMAP
60
F0
70
30
60
C0
ENDCHAR
STARTCHAR 002D
ENCODING 45
SWIDTH 360 0
DWIDTH 7 0
BBX 6 2 1 5
BITMAP
FC
FC
ENDCHAR
STARTCHAR 002E
ENCODING 46
SWIDTH 308 0
DWIDTH 6 0
BBX 4 3 1 0
BITMAP
60
F0
60
ENDCHAR
STARTCHAR 002F
ENCODING 47
SWIDTH 462 0
DWIDTH 9 0
BBX 9 14 0 0
BITMAP
0180
0300
0300
0600
0600
0E00
0C00
1C00
1800
3800
3000
7000
6000
E000
ENDCHAR
STARTCHAR 0030
ENCODING 48
SWIDTH 617 0
DWIDTH 12 0
BBX 10 13 1 0
BITMAP
1E00
7F80
7380
E1C0
E1C0
E0C0
C0C0
E0C0
E1C0
E1C0
7380
7F80
1E00
ENDCHAR
STARTCHAR 0031
ENCODING 49
SWIDTH 411 0
DWIDTH 8 0
BBX 5 13 1 0
BITMAP
18
38
F8
F8
18
18
18
18
18
18
18
18
18
ENDCHAR
STARTCHAR 0032
ENCODING 50
SWIDTH 565 0
DWIDTH 11 0
BBX 9 13 1 0
BITMAP
3E00
7F00
E780
C380
C380
0380
0F00
1E00
7C00
7000
E000
FF80
FF80
ENDCHAR
STARTCHAR 0033
ENCODING 51
SWIDTH 565 0
DWIDTH 11 0
BBX 10 13 0 0
BITMAP
7FC0
7FC0
0380
0700
0E00
1F00
0F80
01C0
01C0
E1C0
73C0
7F80
1F00
ENDCHAR
STARTCHAR 0034
ENCODING 52
SWIDTH 617 0
DWIDTH 12 0
BBX 10 13 1 0
BITMAP
0700
0F00
1F00
3B00
3300
7300
E300
C300
FFC0
FFC0
0300
0300
0300
ENDCHAR
STARTCHAR 0035
ENCODING 53
SWIDTH 565 0
DWIDTH 11 0
BBX 9 13 1 0
BITMAP
7F80
7F80
6000
6000
FE00
FF00
6380
0380
0180
C380
E780
7F00
3E00
ENDCHAR
STARTCHAR 0036
ENCODING 54
SWIDTH 565 0
DWIDTH 11 0
BBX 10 13 1 0
BITMAP
0F80
3F80
7880
7000
E000
FF00
FF80
E3C0
E1C0
E1C0
7380
7F80
1E00
ENDCHAR
STARTCHAR 0037
ENCODING 55
SWIDTH 514 0
DWIDTH 10 0
BBX 10 13 0 0
BITMAP
FFC0
FFC0
0380
0700
0700
0E00
0C00
1C00
1C00
3800
3800
3800
3800
ENDCHAR
STARTCHAR 0038
ENCODING 56
SWIDTH 565 0
DWIDTH 11 0
BBX 9 13 1 0
BITMAP
3E00
7F00
E380
E380
E380
7F00
7F00
E380
C180
C180
E380
7F00
3E00
ENDCHAR
STARTCHAR 0039
ENCODING 57
SWIDTH 565 0
DWIDTH 11 0
BBX 10 13 1 0
BITMAP
3E00
7F00
E780
C380
C180
E3C0
FFC0
7D80
0180
0380
4F00
FE00
FC00
ENDCHAR
STARTCHAR 003A
ENCODING 58
SWIDTH 308 0
DWIDTH 6 0
BBX 4 10 1 0
BITMAP
60
F0
F0
60
00
00
60
F0
F0
60
ENDCHAR
STARTCHAR 003B
ENCODING 59
SWIDTH 308 0
DWIDTH 6 0
BBX 4 13 1 -3
BITMAP
60
F0
F0
60
00
00
00
60
F0
F0
30
20
60
ENDCHAR
STARTCHAR 003C
ENCODING 60
SWIDTH 514 0
DWIDTH 10 0
BBX 8 10 1 1
BITMAP
01
07
1F
78
E0
E0
7C
1F
07
01
ENDCHAR
STARTCHAR 003D
ENCODING 61
SWIDTH 617 0
DWIDTH 12 0
BBX 10 6 1 3
BITMAP
FFC0
FFC0
0000
0000
FFC0
FFC0
ENDCHAR
STARTCHAR 003E
ENCODING 62
SWIDTH 514 0
DWIDTH 10 0
BBX 8 10 1 1
BITMAP
80
E0
F8
3E
0F
0F
3E
F8
E0
80
ENDCHAR
STARTCHAR 003F
ENCODING 63
SWIDTH 514 0
DWIDTH 10 0
BBX 9 14 1 0
BITMAP
3C00
7F00
E700
C380
C380
0700
0F00
1C00
1800
1800
0000
1800
3800
1800
ENDCHAR
STARTCHAR 0040
ENCODING 64
SWIDTH 822 0
DWIDTH 16 0
BBX 14 15 1 -1
BITMAP
07C0
1FF0
3838
601C
E7EC
CFEC
CC64
D84C
D8CC
CFF8
E770
6000
3830
1FF0
07C0
ENDCHAR
STARTCHAR 0041
ENCODING 65
SWIDTH 720 0
DWIDTH 14 0
BBX 14 14 0 0
BITMAP
0780
0780
07C0
0FC0
0DC0
1CE0
1CE0
1860
3870
3FF0
3FF8
7038
7038
E01C
ENDCHAR
STARTCHAR 0042
ENCODING 66
SWIDTH 617 0
DWIDTH 12 0
BBX 9 14 2 0
BITMAP
FE00
FF00
C780
C380
C380
C700
FE00
FF00
C380
C380
C380
C380
FF00
FE00
ENDCHAR
STARTCHAR 0043
ENCODING 67
SWIDTH 771 0
DWIDTH 15 0
BBX 13 14 1 0
BITMAP
0FC0
3FE0
7FF0
7078
E038
E000
E000
E000
E000
E038
7078
7FF0
3FE0
0FC0
ENDCHAR
STARTCHAR 0044
ENCODING 68
SWIDTH 720 0
DWIDTH 14 0
BBX 11 14 2 0
BITMAP
FE00
FF80
CFC0
C1E0
C0E0
C0E0
C060
C060
C0E0
C0E0
C1E0
C7C0
FF80
FE00
ENDCHAR
STARTCHAR 0045
ENCODING 69
SWIDTH 565 0
DWIDTH 11 0
BBX 8 14 2 0
BITMAP
FF
FF
FF
C0
C0
C0
FF
FF
C0
C0
C0
FF
FF
FF
ENDCHAR
STARTCHAR 0046
ENCODING 70
SWIDTH 565 0
DWIDTH 11 0
BBX 8 14 2 0
BITMAP
FF
FF
FF
C0
C0
C0
FF
FF
C0
C0
C0
C0
C0
C0
ENDCHAR
STARTCHAR 0047
ENCODING 71
SWIDTH 771 0
DWIDTH 15 0
BBX 13 14 1 0
BITMAP
0FC0
3FE0
7FF0
7038
E030
E000
C000
C3F8
E3F8
E038
7038
7CF8
3FD8
0F98
ENDCHAR
STARTCHAR 0048
ENCODING 72
SWIDTH 771 0
DWIDTH 15 0
BBX 11 14 2 0
BITMAP
C0E0
C0E0
C0E0
C0E0
C0E0
FFE0
FFE0
FFE0
C0E0
C0E0
C0E0
C0E0
C0E0
C0E0
ENDCHAR
STARTCHAR 0049
ENCODING 73
SWIDTH 308 0
DWIDTH 6 0
BBX 2 14 2 0
BITMAP
C0
C0
C0
C0
C0
C0
C0
C0
C0
C0
C0
C0
C0
C0
ENDCHAR
STARTCHAR 004A
ENCODING 74
SWIDTH 565 0
DWIDTH 11 0
BBX 9 14 0 0
BITMAP
0180
0180
0180
0180
0180
0180
0180
0180
6180
E180
E380
7F80
7F00
1E00
ENDCHAR
STARTCHAR 004B
ENCODING 75
SWIDTH 720 0
DWIDTH 14 0
BBX 11 14 2 0
BITMAP
C1E0
C3C0
C380
C700
CE00
DC00
FC00
FE00
FE00
E700
C380
C3C0
C1C0
C0E0
ENDCHAR
STARTCHAR 004C
ENCODING 76
SWIDTH 565 0
DWIDTH 11 0
BBX 8 14 2 0
BITMAP
C0
C0
C0
C0
C0
C0
C0
C0
C0
C0
C0
FF
FF
FF
ENDCHAR
STARTCHAR 004D
ENCODING 77
SWIDTH 977 0
DWIDTH 19 0
BBX 15 14 2 0
BITMAP
E01E
F01E
F03E
F83E
F87E
D87E
DC6E
DCEE
CEEE
CFCE
C7CE
C78E
C78E
C38E
ENDCHAR
STARTCHAR 004E
ENCODING 78
SWIDTH 771 0
DWIDTH 15 0
BBX 11 14 2 0
BITMAP
E060
F060
F060
F860
DC60
DC60
CE60
CF60
C760
C3E0
C3E0
C1E0
C0E0
C0E0
ENDCHAR
STARTCHAR 004F
ENCODING 79
SWIDTH 822 0
DWIDTH 16 0
BBX 14 14 1 0
BITMAP
0FC0
3FE0
7FF0
7038
E038
E01C
E01C
E01C
E01C
E03C
7038
7FF0
3FE0
0FC0
ENDCHAR
STARTCHAR 0050
ENCODING 80
SWIDTH 617 0
DWIDTH 12 0
BBX 9 14 2 0
BITMAP
FE00
FF00
C780
C380
C180
C380
C780
FF00
FE00
C000
C000
C000
C000
C000
ENDCHAR
STARTCHAR 0051
ENCODING 81
SWIDTH 822 0
DWIDTH 16 0
BBX 14 15 1 -1
BITMAP
0FC0
3FE0
7FF0
7038
E038
E01C
E01C
E01C
E19C
E1F8
70F8
7FF0
3FF8
0FDC
0008
ENDCHAR
STARTCHAR 0052
ENCODING 82
SWIDTH 617 0
DWIDTH 12 0
BBX 9 14 2 0
BITMAP
FE00
FF00
C780
C380
C180
C380
FF80
FF00
CE00
CE00
C700
C700
C380
C380
ENDCHAR
STARTCHAR 0053
ENCODING 83
SWIDTH 617 0
DWIDTH 12 0
BBX 10 14 1 0
BITMAP
1E00
7F80
7380
E1C0
E000
F000
7F00
3F80
03C0
41C0
E1C0
F3C0
7F80
3F00
ENDCHAR
STARTCHAR 0054
ENCODING 84
SWIDTH 617 0
DWIDTH 12 0
BBX 12 14 0 0
BITMAP
FFF0
FFF0
FFF0
0600
0600
0600
0600
0600
0600
0600
0600
0600
0600
0600
ENDCHAR
STARTCHAR 0055
ENCODING 85
SWIDTH 668 0
DWIDTH 13 0
BBX 11 14 1 0
BITMAP
E0E0
E0E0
E0E0
E0E0
E0E0
E0E0
E0E0
E0E0
E0E0
E0E0
70E0
7FC0
3FC0
1F00
ENDCHAR
STARTCHAR 0056
ENCODING 86
SWIDTH 668 0
DWIDTH 13 0
BBX 13 14 0 0
BITMAP
E038
7038
7070
7070
3870
38E0
18E0
1CC0
1DC0
0DC0
0F80
0F80
0780
0700
ENDCHAR
STARTCHAR 0057
ENCODING 87
SWIDTH 1028 0
DWIDTH 20 0
BBX 20 14 0 0
BITMAP
E0F070
60F060
70F0E0
70F8E0
71F8C0
39F8C0
3999C0
3B9DC0
1B9D80
1F0D80
1F0F80
1F0F80
0E0700
0E0700
ENDCHAR
STARTCHAR 0058
ENCODING 88
SWIDTH 668 0
DWIDTH 13 0
BBX 11 14 1 0
BITMAP
E0E0
E0E0
71C0
3B80
3B80
1F00
0E00
0E00
1F00
3B80
3B80
71C0
E1E0
E0E0
ENDCHAR
STARTCHAR 0059
ENCODING 89
SWIDTH 668 0
DWIDTH 13 0
BBX 12 14 0 0
BITMAP
F070
7070
38E0
38C0
1DC0
1F80
0F80
0700
0700
0700
0700
0700
0700
0700
ENDCHAR
STARTCHAR 005A
ENCODING 90
SWIDTH 617 0
DWIDTH 12 0
BBX 11 14 1 0
BITMAP
FFE0
FFE0
FFE0
03C0
0780
0700
0E00
1C00
3C00
7800
F000
FFE0
FFE0
FFE0
ENDCHAR
STARTCHAR 005B
ENCODING 91
SWIDTH 308 0
DWIDTH 6 0
BBX 4 19 2 -3
BITMAP
F0
F0
C0
C0
C0
C0
C0
C0
C0
C0
C0
C0
C0
C0
C0
C0
C0
F0
F0
ENDCHAR
STARTCHAR 005C
ENCODING 92
SWIDTH 462 0
DWIDTH 9 0
BBX 9 14 0 0
BITMAP
E000
6000
7000
3000
3800
1800
1C00
0C00
0E00
0600
0700
0300
0380
0180
ENDCHAR
STARTCHAR 005D
ENCODING 93
SWIDTH 308 0
DWIDTH 6 0
BBX 5 19 0 -3
BITMAP
F8
F8
38
38
38
38
38
38
38
38
38
38
38
38
38
38
38
F8
F8
ENDCHAR
STARTCHAR 005E
ENCODING 94
SWIDTH 514 0
DWIDTH 10 0
BBX 9 7 1 7
BITMAP
1800
3C00
3E00
7600
6700
E300
C380
ENDCHAR
STARTCHAR 005F
ENCODING 95
SWIDTH 514 0
DWIDTH 10 0
BBX 10 2 0 -2
BITMAP
FFC0
FFC0
ENDCHAR
STARTCHAR 0060
ENCODING 96
SWIDTH 308 0
DWIDTH 6 0
BBX 4 3 1 11
BITMAP
E0
60
30
ENDCHAR
STARTCHAR 0061
ENCODING 97
SWIDTH 514 0
DWIDTH 10 0
BBX 8 10 1 0
BITMAP
3C
7F
E7
43
3F
FF
E3
C7
FF
7B
ENDCHAR
STARTCHAR 0062
ENCODING 98
SWIDTH 617 0
DWIDTH 12 0
BBX 10 14 1 0
BITMAP
E000
E000
E000
E000
EF00
FF80
F3C0
E1C0
E0C0
E0C0
E1C0
F1C0
FF80
EF00
ENDCHAR
STARTCHAR 0063
ENCODING 99
SWIDTH 565 0
DWIDTH 11 0
BBX 9 10 1 0
BITMAP
3E00
7F00
F780
E100
C000
C000
E100
F380
7F00
3E00
ENDCHAR
STARTCHAR 0064
ENCODING 100
SWIDTH 617 0
DWIDTH 12 0
BBX 10 14 1 0
BITMAP
0180
0180
0180
0180
3D80
7F80
F380
E180
C180
C180
E180
E380
7F80
3DC0
ENDCHAR
STARTCHAR 0065
ENCODING 101
SWIDTH 565 0
DWIDTH 11 0
BBX 9 10 1 0
BITMAP
3E00
7F00
E380
C380
FF80
FF80
C000
E380
7F00
3E00
ENDCHAR
STARTCHAR 0066
ENCODING 102
SWIDTH 360 0
DWIDTH 7 0
BBX 7 15 0 0
BITMAP
1E
3E
38
30
30
FE
FE
30
30
30
30
30
30
30
30
ENDCHAR
STARTCHAR 0067
ENCODING 103
SWIDTH 617 0
DWIDTH 12 0
BBX 9 14 1 -4
BITMAP
3D80
7F80
F380
E180
C180
C180
E380
7F80
3D80
0180
C380
E780
7F00
3E00
ENDCHAR
STARTCHAR 0068
ENCODING 104
SWIDTH 565 0
DWIDTH 11 0
BBX 9 14 1 0
BITMAP
E000
E000
E000
E000
EF00
FF80
F380
E380
E180
E180
E180
E180
E180
E180
ENDCHAR
STARTCHAR 0069
ENCODING 105
SWIDTH 257 0
DWIDTH 5 0
BBX 3 15 1 0
BITMAP
60
E0
E0
00
00
E0
E0
E0
E0
E0
E0
E0
E0
E0
E0
ENDCHAR
STARTCHAR 006A
ENCODING 106
SWIDTH 257 0
DWIDTH 5 0
BBX 4 19 0 -4
BITMAP
30
70
70
00
00
70
70
70
70
70
70
70
70
70
70
70
70
F0
E0
ENDCHAR
STARTCHAR 006B
ENCODING 107
SWIDTH 565 0
DWIDTH 11 0
BBX 9 14 1 0
BITMAP
E000
E000
E000
E000
E380
E700
EE00
FC00
FC00
FE00
FE00
E700
E380
E380
ENDCHAR
STARTCHAR 006C
ENCODING 108
SWIDTH 257 0
DWIDTH 5 0
BBX 3 14 1 0
BITMAP
E0
E0
E0
E0
E0
E0
E0
E0
E0
E0
E0
E0
E0
E0
ENDCHAR
STARTCHAR 006D
ENCODING 109
SWIDTH 874 0
DWIDTH 17 0
BBX 15 10 1 0
BITMAP
EF38
FF7C
F3CE
E38E
E38E
E38E
E38E
E38E
E38E
E38E
ENDCHAR
STARTCHAR 006E
ENCODING 110
SWIDTH 565 0
DWIDTH 11 0
BBX 9 10 1 0
BITMAP
EF00
FF80
F380
E380
E180
E180
E180
E180
E180
E180
ENDCHAR
STARTCHAR 006F
ENCODING 111
SWIDTH 565 0
DWIDTH 11 0
BBX 10 10 1 0
BITMAP
3E00
7F00
F380
E180
C1C0
C1C0
E180
F380
7F00
3E00
ENDCHAR
STARTCHAR 0070
ENCODING 112
SWIDTH 617 0
DWIDTH 12 0
BBX 10 14 1 -4
BITMAP
EF00
FF80
F3C0
E1C0
E0C0
E0C0
E1C0
F3C0
FF80
EF00
E000
E000
E000
E000
ENDCHAR
STARTCHAR 0071
ENCODING 113
SWIDTH 617 0
DWIDTH 12 0
BBX 10 14 1 -4
BITMAP
3DC0
7FC0
F3C0
E1C0
C1C0
C1C0
E1C0
F3C0
7FC0
3DC0
01C0
01C0
01C0
01C0
ENDCHAR
STARTCHAR 0072
ENCODING 114
SWIDTH 411 0
DWIDTH 8 0
BBX 6 10 1 0
BITMAP
EC
FC
FC
E0
E0
E0
E0
E0
E0
E0
ENDCHAR
STARTCHAR 0073
ENCODING 115
SWIDTH 462 0
DWIDTH 9 0
BBX 7 10 1 0
BITMAP
7C
FE
C6
C0
FC
7E
06
C6
FE
7C
ENDCHAR
STARTCHAR 0074
ENCODING 116
SWIDTH 360 0
DWIDTH 7 0
BBX 6 13 0 0
BITMAP
38
38
38
FC
FC
38
38
38
38
38
38
3C
1C
ENDCHAR
STARTCHAR 0075
ENCODING 117
SWIDTH 565 0
DWIDTH 11 0
BBX 9 10 1 0
BITMAP
E380
E380
E380
E380
E380
E380
E380
E380
7F80
3D80
ENDCHAR
STARTCHAR 0076
ENCODING 118
SWIDTH 565 0
DWIDTH 11 0
BBX 10 10 0 0
BITMAP
E0C0
71C0
7180
3380
3B80
3B00
1F00
1F00
0E00
0E00
ENDCHAR
STARTCHAR 0077
ENCODING 119
SWIDTH 822 0
DWIDTH 16 0
BBX 16 10 0 0
BITMAP
E1C7
63C6
73C6
73EE
376E
366C
3E7C
1E3C
1C38
1C38
ENDCHAR
STARTCHAR 0078
ENCODING 120
SWIDTH 514 0
DWIDTH 10 0
BBX 9 10 1 0
BITMAP
E380
E700
7600
3E00
3C00
3C00
3E00
7E00
E700
C380
ENDCHAR
STARTCHAR 0079
ENCODING 121
SWIDTH 565 0
DWIDTH 11 0
BBX 10 14 0 -4
BITMAP
E0C0
71C0
71C0
3980
3B80
1B00
1F00
0E00
0E00
0E00
1C00
1C00
1800
3800
ENDCHAR
STARTCHAR 007A
ENCODING 122
SWIDTH 462 0
DWIDTH 9 0
BBX 8 10 1 0
BITMAP
FF
FF
0E
1C
3C
38
70
E0
FF
FF
ENDCHAR
STARTCHAR 007B
ENCODING 123
SWIDTH 360 0
DWIDTH 7 0
BBX 6 19 1 -3
BITMAP
1C
3C
30
30
30
30
30
30
70
E0
E0
70
30
30
30
30
30
3C
1C
ENDCHAR
STARTCHAR 007C
ENCODING 124
SWIDTH 257 0
DWIDTH 5 0
BBX 2 19 2 -3
BITMAP
C0
C0
C0
C0
C0
C0
C0
C0
C0
C0
C0
C0
C0
C0
C0
C0
C0
C0
C0
ENDCHAR
STARTCHAR 007D
ENCODING 125
SWIDTH 360 0
DWIDTH 7 0
BBX 6 19 0 -3
BITMAP
E0
F0
30
30
30
30
30
30
38
1C
1C
38
30
30
30
30
30
F0
E0
ENDCHAR
STARTCHAR 007E
ENCODING 126
SWIDTH 565 0
DWIDTH 11 0
BBX 9 3 1 4
BITMAP
7C80
FF80
8700
ENDCHAR
STARTCHAR 00A0
ENCODING 160
SWIDTH 257 0
DWIDTH 5 0
BBX 0 0 0 0
BITMAP
ENDCHAR
STARTCHAR 00A1
ENCODING 161
SWIDTH 308 0
DWIDTH 6 0
BBX 3 14 1 -4
BITMAP
60
E0
60
00
60
60
60
60
60
60
60
60
E0
E0
ENDCHAR
STARTCHAR 00A2
ENCODING 162
SWIDTH 565 0
DWIDTH 11 0
BBX 9 13 1 0
BITMAP
1800
1800
3E00
7F00
E380
C000
C000
C000
E380
7F00
3E00
1800
1800
ENDCHAR
STARTCHAR 00A3
ENCODING 163
SWIDTH 617 0
DWIDTH 12 0
BBX 10 13 1 0
BITMAP
1E00
3F80
7380
7180
7000
7000
FF00
FF00
3800
30C0
71C0
FFC0
FF80
ENDCHAR
STARTCHAR 00A4
ENCODING 164
SWIDTH 565 0
DWIDTH 11 0
BBX 10 10 1 0
BITMAP
4080
FFC0
7F80
6380
6180
6180
6380
7F80
FFC0
4080
ENDCHAR
STARTCHAR 00A5
ENCODING 165
SWIDTH 617 0
DWIDTH 12 0
BBX 10 13 1 0
BITMAP
E1C0
E1C0
7380
7300
3F00
FFC0
FFC0
0C00
FFC0
FFC0
0C00
0C00
0C00
ENDCHAR
STARTCHAR 00A6
ENCODING 166
SWIDTH 257 0
DWIDTH 5 0
BBX 2 19 2 -3
BITMAP
C0
C0
C0
C0
C0
C0
C0
C0
00
00
00
C0
C0
C0
C0
C0
C0
C0
C0
ENDCHAR
STARTCHAR 00A7
ENCODING 167
SWIDTH 565 0
DWIDTH 11 0
BBX 9 18 1 -4
BITMAP
3E00
7F00
6300
E380
E000
7800
3E00
6F00
E300
E380
7B00
3E00
0F00
0700
E380
E700
7F00
3E00
ENDCHAR
STARTCHAR 00A8
ENCODING 168
SWIDTH 411 0
DWIDTH 8 0
BBX 6 3 1 11
BITMAP
CC
CC
CC
ENDCHAR
STARTCHAR 00A9
ENCODING 169
SWIDTH 822 0
DWIDTH 16 0
BBX 14 14 1 0
BITMAP
0FC0
1FE0
7030
6798
CFCC
DCCC
980C
980C
DCCC
CFCC
6798
7030
3FE0
0FC0
ENDCHAR
STARTCHAR 00AA
ENCODING 170
SWIDTH 411 0
DWIDTH 8 0
BBX 6 7 1 6
BITMAP
78
FC
0C
7C
CC
DC
7C
ENDCHAR
STARTCHAR 00AB
ENCODING 171
SWIDTH 514 0
DWIDTH 10 0
BBX 9 8 1 2
BITMAP
3380
7700
6600
CE00
CC00
6600
7700
3300
ENDCHAR
STARTCHAR 00AC
ENCODING 172
SWIDTH 565 0
DWIDTH 11 0
BBX 9 6 1 3
BITMAP
FF80
FF80
0180
0180
0180
0180
ENDCHAR
STARTCHAR 00AD
ENCODING 173
SWIDTH 360 0
DWIDTH 7 0
BBX 6 2 1 5
BITMAP
FC
FC
ENDCHAR
STARTCHAR 00AE
ENCODING 174
SWIDTH 822 0
DWIDTH 16 0
BBX 14 14 1 0
BITMAP
0FC0
3FE0
7030
6F98
CFCC
CCCC
8DCC
8F8C
CD8C
CD8C
6CD8
7030
1FE0
0FC0
ENDCHAR
STARTCHAR 00AF
ENCODING 175
SWIDTH 360 0
DWIDTH 7 0
BBX 5 2 1 11
BITMAP
F8
F8
ENDCHAR
STARTCHAR 00B0
ENCODING 176
SWIDTH 360 0
DWIDTH 7 0
BBX 7 6 0 7
BITMAP
38
7C
C6
C6
7C
38
ENDCHAR
STARTCHAR 00B1
ENCODING 177
SWIDTH 617 0
DWIDTH 12 0
BBX 9 10 1 1
BITMAP
0C00
0C00
0C00
FF80
FF80
0C00
0C00
0000
FF80
FF80
ENDCHAR
STARTCHAR 00B2
ENCODING 178
SWIDTH 411 0
DWIDTH 8 0
BBX 6 8 1 6
BITMAP
78
F8
CC
18
70
E0
FC
FC
ENDCHAR
STARTCHAR 00B3
ENCODING 179
SWIDTH 411 0
DWIDTH 8 0
BBX 6 8 1 6
BITMAP
FC
FC
38
38
0C
CC
FC
30
ENDCHAR
STARTCHAR 00B4
ENCODING 180
SWIDTH 308 0
DWIDTH 6 0
BBX 4 3 1 11
BITMAP
70
E0
C0
ENDCHAR
STARTCHAR 00B5
ENCODING 181
SWIDTH 617 0
DWIDTH 12 0
BBX 9 14 1 -4
BITMAP
E180
E180
E180
E180
E180
E180
E380
F380
FF80
FD80
E000
E000
E000
E000
ENDCHAR
STARTCHAR 00B6
ENCODING 182
SWIDTH 668 0
DWIDTH 13 0
BBX 12 18 1 -4
BITMAP
3FF0
FFF0
FCC0
FCC0
FCC0
FCC0
FCC0
7CC0
0CC0
0CC0
0CC0
0CC0
0CC0
0CC0
0CC0
0CC0
0CC0
0CC0
ENDCHAR
STARTCHAR 00B7
ENCODING 183
SWIDTH 308 0
DWIDTH 6 0
BBX 3 4 1 4
BITMAP
60
E0
E0
60
ENDCHAR
STARTCHAR 00B8
ENCODING 184
SWIDTH 308 0
DWIDTH 6 0
BBX 4 4 1 -4
BITMAP
60
70
90
F0
ENDCHAR
STARTCHAR 00B9
ENCODING 185
SWIDTH 308 0
DWIDTH 6 0
BBX 4 7 1 7
BITMAP
30
70
F0
70
70
70
70
ENDCHAR
STARTCHAR 00BA
ENCODING 186
SWIDTH 462 0
DWIDTH 9 0
BBX 7 7 1 6
BITMAP
3C
7E
C6
C6
C6
7E
3C
ENDCHAR
STARTCHAR 00BB
ENCODING 187
SWIDTH 514 0
DWIDTH 10 0
BBX 8 8 1 2
BITMAP
CC
E6
67
33
33
67
E6
CC
ENDCHAR
STARTCHAR 00BC
ENCODING 188
SWIDTH 822 0
DWIDTH 16 0
BBX 14 13 1 0
BITMAP
3070
7060
F0C0
31C0
3180
3300
3738
0678
0CD8
1D98
19FC
31FC
6018
ENDCHAR
STARTCHAR 00BD
ENCODING 189
SWIDTH 822 0
DWIDTH 16 0
BBX 14 13 1 0
BITMAP
3070
7060
F0C0
31C0
3180
3330
377C
064C
0C0C
1C38
1870
307C
607C
ENDCHAR
STARTCHAR 00BE
ENCODING 190
SWIDTH 874 0
DWIDTH 17 0
BBX 15 13 1 0
BITMAP
FC18
FC38
3830
3860
0CE0
CCC0
FD8C
339C
033C
066C
0C7E
0C7E
180C
ENDCHAR
STARTCHAR 00BF
ENCODING 191
SWIDTH 514 0
DWIDTH 10 0
BBX 9 14 0 -4
BITMAP
0C00
1E00
0C00
0000
0C00
0C00
1C00
3800
7000
E180
E180
E380
7F80
3F00
ENDCHAR
STARTCHAR 00C0
ENCODING 192
SWIDTH 720 0
DWIDTH 14 0
BBX 14 17 0 0
BITMAP
0E00
0700
0000
0780
0780
07C0
0FC0
0DC0
1CE0
1CE0
1860
3870
3FF0
3FF8
7038
7038
E01C
ENDCHAR
STARTCHAR 00C1
ENCODING 193
SWIDTH 720 0
DWIDTH 14 0
BBX 14 17 0 0
BITMAP
01C0
0380
0000
0780
0780
07C0
0FC0
0DC0
1CE0
1CE0
1860
3870
3FF0
3FF8
7038
7038
E01C
ENDCHAR
STARTCHAR 00C2
ENCODING 194
SWIDTH 720 0
DWIDTH 14 0
BBX 14 17 0 0
BITMAP
0780
0CC0
0000
0780
0780
07C0
0FC0
0DC0
1CE0
1CE0
1860
3870
3FF0
3FF8
7038
7038
E01C
ENDCHAR
STARTCHAR 00C3
ENCODING 195
SWIDTH 720 0
DWIDTH 14 0
BBX 14 18 0 0
BITMAP
0E40
0FC0
09C0
0000
0780
0780
07C0
0FC0
0DC0
1CE0
1CE0
1860
3870
3FF0
3FF8
7038
7038
E01C
ENDCHAR
STARTCHAR 00C4
ENCODING 196
SWIDTH 720 0
DWIDTH 14 0
BBX 14 18 0 0
BITMAP
1860
3860
1860
0000
0780
0780
07C0
0FC0
0DC0
1CE0
1CE0
1860
3870
3FF0
3FF8
7038
7038
E01C
ENDCHAR
STARTCHAR 00C5
ENCODING 197
SWIDTH 720 0
DWIDTH 14 0
BBX 14 18 0 0
BITMAP
0300
0780
0CC0
0CC0
0780
0780
0780
0FC0
0DC0
1CE0
1CE0
1860
3870
3FF0
3FF8
7038
7038
E01C
ENDCHAR
STARTCHAR 00C6
ENCODING 198
SWIDTH 1080 0
DWIDTH 21 0
BBX 19 14 0 0
BITMAP
007FE0
00FFE0
00FFE0
01DC00
039C00
039C00
071FE0
0F1FE0
0FFC00
1FFC00
3FFC00
381FE0
701FE0
F01FE0
ENDCHAR
STARTCHAR 00C7
ENCODING 199
SWIDTH 771 0
DWIDTH 15 0
BBX 13 18 1 -4
BITMAP
0FC0
3FE0
7FF0
7078
E038
E000
E000
E000
E000
E038
7038
7FF0
3FE0
0FC0
0200
0380
0580
0780
ENDCHAR
STARTCHAR 00C8
ENCODING 200
SWIDTH 565 0
DWIDTH 11 0
BBX 8 17 2 0
BITMAP
70
18
00
FF
FF
FF
C0
C0
C0
FF
FF
C0
C0
C0
FF
FF
FF
ENDCHAR
STARTCHAR 00C9
ENCODING 201
SWIDTH 565 0
DWIDTH 11 0
BBX 8 17 2 0
BITMAP
0E
18
00
FF
FF
FF
C0
C0
C0
FF
FF
C0
C0
C0
FF
FF
FF
ENDCHAR
STARTCHAR 00CA
ENCODING 202
SWIDTH 565 0
DWIDTH 11 0
BBX 8 17 2 0
BITMAP
3C
66
00
FF
FF
FF
C0
C0
C0
FF
FF
C0
C0
C0
FF
FF
FF
ENDCHAR
STARTCHAR 00CB
ENCODING 203
SWIDTH 565 0
DWIDTH 11 0
BBX 8 18 2 0
BITMAP
66
E7
66
00
FF
FF
FF
C0
C0
C0
FF
FF
C0
C0
C0
FF
FF
FF
ENDCHAR
STARTCHAR 00CC
ENCODING 204
SWIDTH 308 0
DWIDTH 6 0
BBX 4 17 0 0
BITMAP
E0
70
00
30
30
30
30
30
30
30
30
30
30
30
30
30
30
ENDCHAR
STARTCHAR 00CD
ENCODING 205
SWIDTH 308 0
DWIDTH 6 0
BBX 4 17 2 0
BITMAP
70
E0
00
C0
C0
C0
C0
C0
C0
C0
C0
C0
C0
C0
C0
C0
C0
ENDCHAR
STARTCHAR 00CE
ENCODING 206
SWIDTH 308 0
DWIDTH 6 0
BBX 6 17 0 0
BITMAP
78
CC
00
30
30
30
30
30
30
30
30
30
30
30
30
30
30
ENDCHAR
STARTCHAR 00CF
ENCODING 207
SWIDTH 308 0
DWIDTH 6 0
BBX 6 18 0 0
BITMAP
CC
DC
CC
00
30
30
30
30
30
30
30
30
30
30
30
30
30
30
ENDCHAR
STARTCHAR 00D0
ENCODING 208
SWIDTH 771 0
DWIDTH 15 0
BBX 14 14 0 0
BITMAP
3FC0
3FE0
39F0
3838
3838
381C
FE1C
FE1C
381C
3838
3838
39F0
3FE0
3FC0
ENDCHAR
STARTCHAR 00D1
ENCODING 209
SWIDTH 771 0
DWIDTH 15 0
BBX 11 18 2 0
BITMAP
1980
3F80
3700
0000
E060
F060
F060
F860
DC60
DC60
CE60
CF60
C760
C3E0
C3E0
C1E0
C0E0
C0E0
ENDCHAR
STARTCHAR 00D2
ENCODING 210
SWIDTH 822 0
DWIDTH 16 0
BBX 14 17 1 0
BITMAP
1C00
0600
0100
0FC0
3FE0
7FF0
7038
E038
E01C
E01C
E01C
E01C
E03C
7038
7FF0
3FE0
0FC0
ENDCHAR
STARTCHAR 00D3
ENCODING 211
SWIDTH 822 0
DWIDTH 16 0
BBX 14 17 1 0
BITMAP
01C0
0380
0000
0FC0
3FE0
7FF0
7038
E038
E01C
E01C
E01C
E01C
E03C
7038
7FF0
3FE0
0FC0
ENDCHAR
STARTCHAR 00D4
ENCODING 212
SWIDTH 822 0
DWIDTH 16 0
BBX 14 17 1 0
BITMAP
0780
0FC0
0000
0FC0
3FE0
7FF0
7038
E038
E01C
E01C
E01C
E01C
E03C
7038
7FF0
3FE0
0FC0
ENDCHAR
STARTCHAR 00D5
ENCODING 213
SWIDTH 822 0
DWIDTH 16 0
BBX 14 18 1 0
BITMAP
0E00
0FC0
1FC0
0180
0FC0
3FE0
7FF0
7038
E038
E01C
E01C
E01C
E01C
E03C
7038
7FF0
3FE0
0FC0
ENDCHAR
STARTCHAR 00D6
ENCODING 214
SWIDTH 822 0
DWIDTH 16 0
BBX 14 17 1 0
BITMAP
1860
3860
1860
0FC0
3FE0
7FF0
7038
E038
E01C
E01C
E01C
E01C
E03C
7038
7FF0
3FE0
0FC0
ENDCHAR
STARTCHAR 00D7
ENCODING 215
SWIDTH 565 0
DWIDTH 11 0
BBX 9 10 1 1
BITMAP
4100
E380
7700
3E00
3C00
3C00
3E00
7700
E380
4100
ENDCHAR
STARTCHAR 00D8
ENCODING 216
SWIDTH 822 0
DWIDTH 16 0
BBX 14 16 1 -1
BITMAP
0010
0F98
3FF8
7FF0
70F8
E1F8
E19C
E39C
E71C
EE1C
FC3C
7838
7FF0
7FE0
EFC0
4000
ENDCHAR
STARTCHAR 00D9
ENCODING 217
SWIDTH 668 0
DWIDTH 13 0
BBX 11 17 1 0
BITMAP
1C00
0E00
0000
E0E0
E0E0
E0E0
E0E0
E0E0
E0E0
E0E0
E0E0
E0E0
E0E0
70E0
7FC0
3FC0
1F00
ENDCHAR
STARTCHAR 00DA
ENCODING 218
SWIDTH 668 0
DWIDTH 13 0
BBX 11 17 1 0
BITMAP
0780
0E00
0000
E0E0
E0E0
E0E0
E0E0
E0E0
E0E0
E0E0
E0E0
E0E0
E0E0
70E0
7FC0
3FC0
1F00
ENDCHAR
STARTCHAR 00DB
ENCODING 219
SWIDTH 668 0
DWIDTH 13 0
BBX 11 17 1 0
BITMAP
1F00
1B80
0000
E0E0
E0E0
E0E0
E0E0
E0E0
E0E0
E0E0
E0E0
E0E0
E0E0
70E0
7FC0
3FC0
1F00
ENDCHAR
STARTCHAR 00DC
ENCODING 220
SWIDTH 668 0
DWIDTH 13 0
BBX 11 18 1 0
BITMAP
1180
3980
3180
0000
E0E0
E0E0
E0E0
E0E0
E0E0
E0E0
E0E0
E0E0
E0E0
E0E0
70E0
7FC0
3FC0
1F00
ENDCHAR
STARTCHAR 00DD
ENCODING 221
SWIDTH 668 0
DWIDTH 13 0
BBX 12 17 0 0
BITMAP
0380
0700
0000
F070
7070
38E0
38C0
1DC0
1F80
0F80
0700
0700
0700
0700
0700
0700
0700
ENDCHAR
STARTCHAR 00DE
ENCODING 222
SWIDTH 617 0
DWIDTH 12 0
BBX 9 14 2 0
BITMAP
C000
C000
C000
FE00
FF00
C380
C380
C180
C380
FF00
FE00
C000
C000
C000
ENDCHAR
STARTCHAR 00DF
ENCODING 223
SWIDTH 617 0
DWIDTH 12 0
BBX 10 14 1 0
BITMAP
1E00
7F80
7380
E180
E180
E780
EF00
EE00
EF80
E7C0
E1C0
ECC0
EFC0
E780
ENDCHAR
STARTCHAR 00E0
ENCODING 224
SWIDTH 514 0
DWIDTH 10 0
BBX 8 14 1 0
BITMAP
70
38
18
00
3C
7F
E7
43
3F
FF
E3
C7
FF
7B
ENDCHAR
STARTCHAR 00E1
ENCODING 225
SWIDTH 514 0
DWIDTH 10 0
BBX 8 14 1 0
BITMAP
0E
0C
18
00
3C
7F
E7
43
3F
FF
E3
C7
FF
7B
ENDCHAR
STARTCHAR 00E2
ENCODING 226
SWIDTH 514 0
DWIDTH 10 0
BBX 8 14 1 0
BITMAP
1C
3C
66
00
3C
7F
E7
43
3F
FF
E3
C7
FF
7B
ENDCHAR
STARTCHAR 00E3
ENCODING 227
SWIDTH 514 0
DWIDTH 10 0
BBX 8 14 1 0
BITMAP
33
7E
4E
00
3C
7F
E7
43
3F
FF
E3
C7
FF
7B
ENDCHAR
STARTCHAR 00E4
ENCODING 228
SWIDTH 514 0
DWIDTH 10 0
BBX 8 14 1 0
BITMAP
66
67
66
00
3C
7F
E7
43
3F
FF
E3
C7
FF
7B
ENDCHAR
STARTCHAR 00E5
ENCODING 229
SWIDTH 514 0
DWIDTH 10 0
BBX 8 15 1 0
BITMAP
1C
24
24
1C
00
3C
7F
E7
43
3F
FF
E3
C7
FF
7B
ENDCHAR
STARTCHAR 00E6
ENCODING 230
SWIDTH 874 0
DWIDTH 17 0
BBX 15 10 1 0
BITMAP
3CF8
7FFC
E78E
0306
3FFE
FFFE
C300
C78E
FFFC
7CF8
ENDCHAR
STARTCHAR 00E7
ENCODING 231
SWIDTH 565 0
DWIDTH 11 0
BBX 9 14 1 -4
BITMAP
3E00
7F00
F780
E100
C000
C000
E100
F380
7F00
1E00
0800
0E00
1600
1C00
ENDCHAR
STARTCHAR 00E8
ENCODING 232
SWIDTH 565 0
DWIDTH 11 0
BBX 9 14 1 0
BITMAP
7000
3800
1800
0000
3E00
7F00
E380
C380
FF80
FF80
C000
E380
7F00
3E00
ENDCHAR
STARTCHAR 00E9
ENCODING 233
SWIDTH 565 0
DWIDTH 11 0
BBX 9 14 1 0
BITMAP
0600
0E00
1C00
0000
3E00
7F00
E380
C380
FF80
FF80
C000
E380
7F00
3E00
ENDCHAR
STARTCHAR 00EA
ENCODING 234
SWIDTH 565 0
DWIDTH 11 0
BBX 9 14 1 0
BITMAP
1C00
3E00
7700
0000
3E00
7F00
E380
C380
FF80
FF80
C000
E380
7F00
3E00
ENDCHAR
STARTCHAR 00EB
ENCODING 235
SWIDTH 565 0
DWIDTH 11 0
BBX 9 14 1 0
BITMAP
2200
7700
7700
0000
3E00
7F00
E380
C380
FF80
FF80
C000
E380
7F00
3E00
ENDCHAR
STARTCHAR 00EC
ENCODING 236
SWIDTH 257 0
DWIDTH 5 0
BBX 4 14 0 0
BITMAP
C0
E0
70
00
70
70
70
70
70
70
70
70
70
70
ENDCHAR
STARTCHAR 00ED
ENCODING 237
SWIDTH 257 0
DWIDTH 5 0
BBX 5 14 1 0
BITMAP
38
70
60
00
E0
E0
E0
E0
E0
E0
E0
E0
E0
E0
ENDCHAR
STARTCHAR 00EE
ENCODING 238
SWIDTH 257 0
DWIDTH 5 0
BBX 6 14 0 0
BITMAP
70
F8
CC
00
70
70
70
70
70
70
70
70
70
70
ENDCHAR
STARTCHAR 00EF
ENCODING 239
SWIDTH 257 0
DWIDTH 5 0
BBX 6 14 0 0
BITMAP
D8
DC
C8
00
70
70
70
70
70
70
70
70
70
70
ENDCHAR
STARTCHAR 00F0
ENCODING 240
SWIDTH 565 0
DWIDTH 11 0
BBX 10 15 1 0
BITMAP
3000
3980
3F80
1F00
3F00
0380
3D80
7F80
E3C0
C1C0
C1C0
E180
F380
7F00
3E00
ENDCHAR
STARTCHAR 00F1
ENCODING 241
SWIDTH 565 0
DWIDTH 11 0
BBX 9 14 1 0
BITMAP
3900
3F00
6600
0000
EF00
FF80
F380
E380
E180
E180
E180
E180
E180
E180
ENDCHAR
STARTCHAR 00F2
ENCODING 242
SWIDTH 565 0
DWIDTH 11 0
BBX 10 14 1 0
BITMAP
3000
3800
1C00
0000
3E00
7F00
F380
E180
C1C0
C1C0
E180
F380
7F00
3E00
ENDCHAR
STARTCHAR 00F3
ENCODING 243
SWIDTH 565 0
DWIDTH 11 0
BBX 10 14 1 0
BITMAP
0700
0E00
0C00
0000
3E00
7F00
F380
E180
C1C0
C1C0
E180
F380
7F00
3E00
ENDCHAR
STARTCHAR 00F4
ENCODING 244
SWIDTH 565 0
DWIDTH 11 0
BBX 10 14 1 0
BITMAP
1C00
3E00
3300
0000
3E00
7F00
F380
E180
C1C0
C1C0
E180
F380
7F00
3E00
ENDCHAR
STARTCHAR 00F5
ENCODING 245
SWIDTH 565 0
DWIDTH 11 0
BBX 10 14 1 0
BITMAP
3B00
7F00
6600
0000
3E00
7F00
F380
E180
C1C0
C1C0
E180
F380
7F00
3E00
ENDCHAR
STARTCHAR 00F6
ENCODING 246
SWIDTH 565 0
DWIDTH 11 0
BBX 10 14 1 0
BITMAP
2200
7700
3300
0000
3E00
7F00
F380
E180
C1C0
C1C0
E180
F380
7F00
3E00
ENDCHAR
STARTCHAR 00F7
ENCODING 247
SWIDTH 565 0
DWIDTH 11 0
BBX 9 10 1 1
BITMAP
0C00
1C00
0C00
0000
FF80
FF80
0000
0C00
1C00
0C00
ENDCHAR
STARTCHAR 00F8
ENCODING 248
SWIDTH 565 0
DWIDTH 11 0
BBX 10 12 1 -1
BITMAP
0080
3F80
7F80
F380
E780
CDC0
D9C0
F980
F380
7F00
FE00
4000
ENDCHAR
STARTCHAR 00F9
ENCODING 249
SWIDTH 565 0
DWIDTH 11 0
BBX 9 14 1 0
BITMAP
3800
1800
0C00
0000
E380
E380
E380
E380
E380
E380
E380
E380
7F80
3D80
ENDCHAR
STARTCHAR 00FA
ENCODING 250
SWIDTH 565 0
DWIDTH 11 0
BBX 9 14 1 0
BITMAP
0E00
0C00
1C00
0000
E380
E380
E380
E380
E380
E380
E380
E380
7F80
3D80
ENDCHAR
STARTCHAR 00FB
ENCODING 251
SWIDTH 565 0
DWIDTH 11 0
BBX 9 14 1 0
BITMAP
1C00
3E00
3300
0000
E380
E380
E380
E380
E380
E380
E380
E380
7F80
3D80
ENDCHAR
STARTCHAR 00FC
ENCODING 252
SWIDTH 565 0
DWIDTH 11 0
BBX 9 14 1 0
BITMAP
3300
7700
2300
0000
E380
E380
E380
E380
E380
E380
E380
E380
7F80
3D80
ENDCHAR
STARTCHAR 00FD
ENCODING 253
SWIDTH 565 0
DWIDTH 11 0
BBX 10 18 0 -4
BITMAP
0700
0600
0E00
0000
E0C0
71C0
71C0
3980
3B80
1B00
1F00
0E00
0E00
0E00
1C00
1C00
1800
3800
ENDCHAR
STARTCHAR 00FE
ENCODING 254
SWIDTH 617 0
DWIDTH 12 0
BBX 10 18 1 -4
BITMAP
E000
E000
E000
E000
EF00
FF80
F3C0
E1C0
E0C0
E0C0
E1C0
F3C0
FF80
EF00
E000
E000
E000
E000
ENDCHAR
STARTCHAR 00FF
ENCODING 255
SWIDTH 565 0
DWIDTH 11 0
BBX 10 18 0 -4
BITMAP
3380
3B80
1100
0000
E0C0
71C0
71C0
3980
3B80
1B00
1F00
0E00
0E00
0E00
1C00
1C00
1800
3800
ENDCHAR
STARTCHAR 0131
ENCODING 305
SWIDTH 257 0
DWIDTH 5 0
BBX 3 10 1 0
BITMAP
E0
E0
E0
E0
E0
E0
E0
E0
E0
E0
ENDCHAR
STARTCHAR 0141
ENCODING 321
SWIDTH 565 0
DWIDTH 11 0
BBX 11 14 0 0
BITMAP
3800
3800
3800
3800
3900
3F00
3E00
F800
F800
B800
3800
3FE0
3FE0
3FE0
ENDCHAR
STARTCHAR 0142
ENCODING 322
SWIDTH 308 0
DWIDTH 6 0
BBX 6 14 0 0
BITMAP
30
30
30
30
30
34
3C
F8
F0
B0
30
30
30
30
ENDCHAR
STARTCHAR 0152
ENCODING 338
SWIDTH 1131 0
DWIDTH 22 0
BBX 20 14 1 0
BITMAP
0FDFF0
3FFFF0
78FFF0
703C00
E01C00
E01C00
E01FE0
E01FE0
E01C00
E01C00
703C00
7CFFF0
3FFFF0
0F9FF0
ENDCHAR
STARTCHAR 0153
ENCODING 339
SWIDTH 925 0
DWIDTH 18 0
BBX 17 10 1 0
BITMAP
3E3C00
7FFE00
F7E700
E1C300
C1FF80
C1FF80
E1C000
F3E700
7FFF00
3E3C00
ENDCHAR
STARTCHAR 0160
ENCODING 352
SWIDTH 617 0
DWIDTH 12 0
BBX 10 17 1 0
BITMAP
3300
1E00
0000
1E00
7F80
7380
E1C0
E000
F000
7F00
3F80
03C0
41C0
E1C0
F3C0
7F80
3F00
ENDCHAR
STARTCHAR 0161
ENCODING 353
SWIDTH 462 0
DWIDTH 9 0
BBX 7 14 1 0
BITMAP
EE
6C
38
00
7C
FE
C6
C0
FC
7E
06
C6
FE
7C
ENDCHAR
STARTCHAR 0178
ENCODING 376
SWIDTH 668 0
DWIDTH 13 0
BBX 12 18 0 0
BITMAP
18C0
1DC0
18C0
0000
F070
7070
38E0
38C0
1DC0
1F80
0F80
0700
0700
0700
0700
0700
0700
0700
ENDCHAR
STARTCHAR 017D
ENCODING 381
SWIDTH 617 0
DWIDTH 12 0
BBX 11 17 1 0
BITMAP
3B80
0E00
0000
FFE0
FFE0
FFE0
03C0
0780
0700
0E00
1C00
3C00
7800
F000
FFE0
FFE0
FFE0
ENDCHAR
STARTCHAR 017E
ENCODING 382
SWIDTH 462 0
DWIDTH 9 0
BBX 8 14 1 0
BITMAP
66
7C
38
00
FF
FF
0E
1C
3C
38
70
E0
FF
FF
ENDCHAR
STARTCHAR 0192
ENCODING 402
SWIDTH 514 0
DWIDTH 10 0
BBX 11 18 -1 -3
BITMAP
01E0
03E0
0380
0700
0700
1FC0
1FC0
0600
0E00
0E00
0E00
0E00
0C00
1C00
1C00
1C00
F800
F800
ENDCHAR
STARTCHAR 02C6
ENCODING 710
SWIDTH 411 0
DWIDTH 8 0
BBX 6 3 1 11
BITMAP
78
78
CC
ENDCHAR
STARTCHAR 02C7
ENCODING 711
SWIDTH 411 0
DWIDTH 8 0
BBX 6 3 1 11
BITMAP
CC
78
78
ENDCHAR
STARTCHAR 02C9
ENCODING 713
SWIDTH 360 0
DWIDTH 7 0
BBX 5 2 1 11
BITMAP
F8
F8
ENDCHAR
STARTCHAR 02D8
ENCODING 728
SWIDTH 360 0
DWIDTH 7 0
BBX 6 3 1 11
BITMAP
8C
F8
70
ENDCHAR
STARTCHAR 02D9
ENCODING 729
SWIDTH 205 0
DWIDTH 4 0
BBX 3 3 0 11
BITMAP
60
E0
60
ENDCHAR
STARTCHAR 02DA
ENCODING 730
SWIDTH 257 0
DWIDTH 5 0
BBX 4 5 1 10
BITMAP
E0
F0
90
F0
E0
ENDCHAR
STARTCHAR 02DB
ENCODING 731
SWIDTH 205 0
DWIDTH 4 0
BBX 4 5 0 -5
BITMAP
30
40
C0
70
30
ENDCHAR
STARTCHAR 02DC
ENCODING 732
SWIDTH 411 0
DWIDTH 8 0
BBX 7 3 0 11
BITMAP
72
7E
CC
ENDCHAR
STARTCHAR 02DD
ENCODING 733
SWIDTH 411 0
DWIDTH 8 0
BBX 6 3 1 11
BITMAP
FC
D8
90
ENDCHAR
STARTCHAR 0394
ENCODING 916
SWIDTH 668 0
DWIDTH 13 0
BBX 13 14 0 0
BITMAP
0700
0780
0F80
0F80
0DC0
1CC0
18E0
38E0
3860
3070
7070
7030
7FF8
FFF8
ENDCHAR
STARTCHAR 03A9
ENCODING 937
SWIDTH 771 0
DWIDTH 15 0
BBX 13 14 1 0
BITMAP
0F80
3FE0
7FF0
F078
E038
E038
E018
E038
E038
7070
3DE0
1DC0
FDF8
FDF8
ENDCHAR
STARTCHAR 03BC
ENCODING 956
SWIDTH 617 0
DWIDTH 12 0
BBX 9 14 1 -4
BITMAP
E180
E180
E180
E180
E180
E180
E380
F380
FF80
FD80
E000
E000
E000
E000
ENDCHAR
STARTCHAR 03C0
ENCODING 960
SWIDTH 617 0
DWIDTH 12 0
BBX 11 10 1 0
BITMAP
FFE0
FFE0
7380
7380
7380
7380
7380
7380
71E0
71E0
ENDCHAR
STARTCHAR 2007
ENCODING 8199
SWIDTH 617 0
DWIDTH 12 0
BBX 0 0 0 0
BITMAP
ENDCHAR
STARTCHAR 2008
ENCODING 8200
SWIDTH 308 0
DWIDTH 6 0
BBX 0 0 0 0
BITMAP
ENDCHAR
STARTCHAR 200B
ENCODING 8203
SWIDTH 0 0
DWIDTH 0 0
BBX 0 0 0 0
BITMAP
ENDCHAR
STARTCHAR 2013
ENCODING 8211
SWIDTH 617 0
DWIDTH 12 0
BBX 10 2 1 5
BITMAP
FFC0
FFC0
ENDCHAR
STARTCHAR 2014
ENCODING 8212
SWIDTH 1080 0
DWIDTH 21 0
BBX 19 2 1 5
BITMAP
FFFFE0
FFFFE0
ENDCHAR
STARTCHAR 2018
ENCODING 8216
SWIDTH 257 0
DWIDTH 5 0
BBX 3 6 1 8
BITMAP
60
C0
80
E0
E0
C0
ENDCHAR
STARTCHAR 2019
ENCODING 8217
SWIDTH 257 0
DWIDTH 5 0
BBX 3 6 1 8
BITMAP
C0
E0
E0
60
C0
80
ENDCHAR
STARTCHAR 201A
ENCODING 8218
SWIDTH 257 0
DWIDTH 5 0
BBX 3 6 1 -3
BITMAP
C0
E0
E0
60
C0
80
ENDCHAR
STARTCHAR 201C
ENCODING 8220
SWIDTH 411 0
DWIDTH 8 0
BBX 7 6 1 8
BITMAP
66
CC
88
FC
EE
CC
ENDCHAR
STARTCHAR 201D
ENCODING 8221
SWIDTH 411 0
DWIDTH 8 0
BBX 7 6 1 8
BITMAP
CC
FE
EE
64
CC
88
ENDCHAR
STARTCHAR 201E
ENCODING 8222
SWIDTH 411 0
DWIDTH 8 0
BBX 7 6 1 -3
BITMAP
CC
FE
EE
64
CC
88
ENDCHAR
STARTCHAR 2020
ENCODING 8224
SWIDTH 411 0
DWIDTH 8 0
BBX 6 11 1 3
BITMAP
30
30
30
FC
FC
30
30
30
30
30
30
ENDCHAR
STARTCHAR 2021
ENCODING 8225
SWIDTH 462 0
DWIDTH 9 0
BBX 7 14 1 0
BITMAP
30
30
30
FE
FE
30
30
30
30
FE
FE
30
30
30
ENDCHAR
STARTCHAR 2022
ENCODING 8226
SWIDTH 514 0
DWIDTH 10 0
BBX 8 8 1 2
BITMAP
3C
7E
FF
FF
FF
FF
7E
3C
ENDCHAR
STARTCHAR 2026
ENCODING 8230
SWIDTH 925 0
DWIDTH 18 0
BBX 15 3 1 0
BITMAP
6186
F3CE
6186
ENDCHAR
STARTCHAR 2030
ENCODING 8240
SWIDTH 1080 0
DWIDTH 21 0
BBX 19 13 1 0
BITMAP
783800
FC3000
CC6000
CCE000
FCC000
798000
030000
033BC0
067FE0
0CC660
1CC660
187FE0
303BC0
ENDCHAR
STARTCHAR 2039
ENCODING 8249
SWIDTH 308 0
DWIDTH 6 0
BBX 4 8 1 2
BITMAP
30
70
60
C0
C0
60
70
30
ENDCHAR
STARTCHAR 203A
ENCODING 8250
SWIDTH 308 0
DWIDTH 6 0
BBX 4 8 1 2
BITMAP
C0
E0
60
30
30
60
E0
C0
ENDCHAR
STARTCHAR 2042
ENCODING 8258
SWIDTH 822 0
DWIDTH 16 0
BBX 15 14 1 0
BITMAP
0300
0300
0FC0
0780
0780
04C0
0000
0000
3030
B4B4
FCFE
3838
787C
4848
ENDCHAR
STARTCHAR 2044
ENCODING 8260
SWIDTH 565 0
DWIDTH 11 0
BBX 11 13 0 0
BITMAP
0060
00C0
0180
0380
0300
0600
0E00
0C00
1800
3800
3000
6000
E000
ENDCHAR
STARTCHAR 2051
ENCODING 8273
SWIDTH 411 0
DWIDTH 8 0
BBX 6 14 1 0
BITMAP
30
30
FC
78
78
6C
00
00
30
B4
FC
38
78
48
ENDCHAR
STARTCHAR 2070
ENCODING 8304
SWIDTH 411 0
DWIDTH 8 0
BBX 6 8 1 6
BITMAP
78
FC
CC
CC
CC
CC
7C
30
ENDCHAR
STARTCHAR 2074
ENCODING 8308
SWIDTH 462 0
DWIDTH 9 0
BBX 7 7 1 7
BITMAP
18
38
78
D8
FE
FE
18
ENDCHAR
STARTCHAR 2075
ENCODING 8309
SWIDTH 411 0
DWIDTH 8 0
BBX 6 8 1 6
BITMAP
78
78
50
F8
0C
CC
F8
30
ENDCHAR
STARTCHAR 2076
ENCODING 8310
SWIDTH 411 0
DWIDTH 8 0
BBX 6 8 1 6
BITMAP
3C
7C
C0
FC
CC
CC
7C
30
ENDCHAR
STARTCHAR 2077
ENCODING 8311
SWIDTH 411 0
DWIDTH 8 0
BBX 6 7 1 7
BITMAP
FC
FC
18
30
30
60
60
ENDCHAR
STARTCHAR 2078
ENCODING 8312
SWIDTH 411 0
DWIDTH 8 0
BBX 6 8 1 6
BITMAP
78
FC
CC
78
CC
CC
FC
30
ENDCHAR
STARTCHAR 2079
ENCODING 8313
SWIDTH 411 0
DWIDTH 8 0
BBX 6 8 1 6
BITMAP
78
FC
CC
FC
7C
0C
78
60
ENDCHAR
STARTCHAR 2080
ENCODING 8320
SWIDTH 411 0
DWIDTH 8 0
BBX 6 8 1 -2
BITMAP
78
FC
CC
CC
CC
CC
7C
30
ENDCHAR
STARTCHAR 2081
ENCODING 8321
SWIDTH 308 0
DWIDTH 6 0
BBX 4 7 1 -2
BITMAP
30
70
F0
70
70
70
70
ENDCHAR
STARTCHAR 2082
ENCODING 8322
SWIDTH 411 0
DWIDTH 8 0
BBX 6 7 1 -2
BITMAP
78
F8
CC
38
70
FC
FC
ENDCHAR
STARTCHAR 2083
ENCODING 8323
SWIDTH 411 0
DWIDTH 8 0
BBX 6 7 1 -2
BITMAP
FC
FC
30
3C
4C
FC
78
ENDCHAR
STARTCHAR 2084
ENCODING 8324
SWIDTH 462 0
DWIDTH 9 0
BBX 7 7 1 -2
BITMAP
18
38
78
D8
FE
FE
18
ENDCHAR
STARTCHAR 2085
ENCODING 8325
SWIDTH 411 0
DWIDTH 8 0
BBX 6 7 1 -2
BITMAP
78
78
F0
FC
0C
FC
78
ENDCHAR
STARTCHAR 2086
ENCODING 8326
SWIDTH 411 0
DWIDTH 8 0
BBX 6 7 1 -2
BITMAP
3C
7C
D0
FC
CC
FC
78
ENDCHAR
STARTCHAR 2087
ENCODING 8327
SWIDTH 411 0
DWIDTH 8 0
BBX 6 7 1 -2
BITMAP
FC
FC
18
30
30
60
60
ENDCHAR
STARTCHAR 2088
ENCODING 8328
SWIDTH 411 0
DWIDTH 8 0
BBX 6 8 1 -2
BITMAP
10
7C
CC
CC
78
CC
FC
78
ENDCHAR
STARTCHAR 2089
ENCODING 8329
SWIDTH 411 0
DWIDTH 8 0
BBX 6 8 1 -2
BITMAP
30
F8
CC
CC
FC
0C
78
F0
ENDCHAR
STARTCHAR 20AC
ENCODING 8364
SWIDTH 668 0
DWIDTH 13 0
BBX 12 13 1 0
BITMAP
03E0
0FE0
1E60
3800
FFC0
FF80
3000
FF00
FF00
3800
1E60
0FF0
07E0
ENDCHAR
STARTCHAR 2113
ENCODING 8467
SWIDTH 411 0
DWIDTH 8 0
BBX 7 13 1 0
BITMAP
3C
7C
6E
6E
6E
7C
78
F8
E0
E0
70
7C
3C
ENDCHAR
STARTCHAR 2122
ENCODING 8482
SWIDTH 874 0
DWIDTH 17 0
BBX 15 7 1 7
BITMAP
F98E
F9CE
21DE
215E
2176
2176
2136
ENDCHAR
STARTCHAR 2126
ENCODING 8486
SWIDTH 771 0
DWIDTH 15 0
BBX 13 14 1 0
BITMAP
0F80
3FE0
7FF0
F078
E038
E038
E018
E038
E038
7070
3DE0
1DC0
FDF8
FDF8
ENDCHAR
STARTCHAR 2160
ENCODING 8544
SWIDTH 514 0
DWIDTH 10 0
BBX 8 13 1 0
BITMAP
FF
FF
18
18
18
18
18
18
18
18
18
FF
FF
ENDCHAR
STARTCHAR 2161
ENCODING 8545
SWIDTH 771 0
DWIDTH 15 0
BBX 13 13 1 0
BITMAP
FFF8
FFF8
18E0
18E0
18E0
18E0
18E0
18E0
18E0
18E0
18E0
FFF8
FFF8
ENDCHAR
STARTCHAR 2162
ENCODING 8546
SWIDTH 1080 0
DWIDTH 21 0
BBX 19 13 1 0
BITMAP
FFFFE0
FFFFE0
18E700
18E700
18E700
18E700
18E700
18E700
18E700
18E700
18E700
FFFFE0
FFFFE0
ENDCHAR
STARTCHAR 2163
ENCODING 8547
SWIDTH 1028 0
DWIDTH 20 0
BBX 19 13 1 0
BITMAP
FFFFE0
FFFFE0
398300
39C700
39C700
38C600
38E600
38EE00
386E00
387C00
387C00
FFFFE0
FFFFE0
ENDCHAR
STARTCHAR 2164
ENCODING 8548
SWIDTH 822 0
DWIDTH 16 0
BBX 14 13 1 0
BITMAP
FFFC
FFFC
3870
3860
18E0
1CE0
1CC0
0CC0
0DC0
0FC0
0F80
FFFC
FFFC
ENDCHAR
STARTCHAR 2165
ENCODING 8549
SWIDTH 1028 0
DWIDTH 20 0
BBX 19 13 1 0
BITMAP
FFFFE0
FFFFE0
387700
386700
18E700
1CE700
1CC700
0CC700
0FC700
0FC700
0F8700
FFFFE0
FFFFE0
ENDCHAR
STARTCHAR 2166
ENCODING 8550
SWIDTH 1337 0
DWIDTH 26 0
BBX 24 13 1 0
BITMAP
FFFFFF
FFFFFF
387718
386718
18E718
1CE718
1CC718
0CC718
0FC718
0FC718
0F8718
FFFFFF
FFFFFF
ENDCHAR
STARTCHAR 2167
ENCODING 8551
SWIDTH 1594 0
DWIDTH 31 0
BBX 29 13 1 0
BITMAP
FFFFFFF8
FFFFFFF8
387718C0
386718C0
18E718C0
1CE718C0
1CC718C0
0CC718C0
0FC718C0
0FC718C0
0F8718C0
FFFFFFF8
FFFFFFF8
ENDCHAR
STARTCHAR 2168
ENCODING 8552
SWIDTH 1028 0
DWIDTH 20 0
BBX 18 13 1 0
BITMAP
FFFFC0
FFFFC0
39C700
38EE00
38FE00
387C00
383800
387C00
38FC00
38EE00
39C700
FFFFC0
FFFFC0
ENDCHAR
STARTCHAR 2169
ENCODING 8553
SWIDTH 771 0
DWIDTH 15 0
BBX 13 13 1 0
BITMAP
FFF8
FFF8
38E0
1DC0
1DC0
0F80
0700
0F80
0FC0
1DC0
38E0
FFF8
FFF8
ENDCHAR
STARTCHAR 216C
ENCODING 8556
SWIDTH 668 0
DWIDTH 13 0
BBX 11 13 1 0
BITMAP
FE00
FE00
3800
3800
3800
3800
3800
38E0
38E0
38E0
38E0
FFE0
FFE0
ENDCHAR
STARTCHAR 216D
ENCODING 8557
SWIDTH 720 0
DWIDTH 14 0
BBX 12 13 1 0
BITMAP
0FB0
3FF0
78F0
6070
E030
E000
C000
E000
E030
7070
79F0
3FF0
0FB0
ENDCHAR
STARTCHAR 216E
ENCODING 8558
SWIDTH 720 0
DWIDTH 14 0
BBX 13 13 1 0
BITMAP
FF80
FFE0
39E0
3870
3870
3830
3838
3830
3830
3870
38E0
FFE0
FF80
ENDCHAR
STARTCHAR 216F
ENCODING 8559
SWIDTH 1028 0
DWIDTH 20 0
BBX 19 13 1 0
BITMAP
FC0FE0
FC0FE0
3E0F00
3E1F00
3F1B00
3F3B00
3B3B00
3BB300
3BF300
39E300
39E300
FCEFE0
FCCFE0
ENDCHAR
STARTCHAR 2190
ENCODING 8592
SWIDTH 1080 0
DWIDTH 21 0
BBX 19 9 0 1
BITMAP
080000
180000
380000
7FFFE0
FFFFE0
780000
380000
180000
080000
ENDCHAR
STARTCHAR 2191
ENCODING 8593
SWIDTH 462 0
DWIDTH 9 0
BBX 8 19 1 -3
BITMAP
10
18
3C
7E
FF
18
18
18
18
18
18
18
18
18
18
18
18
18
18
ENDCHAR
STARTCHAR 2192
ENCODING 8594
SWIDTH 1080 0
DWIDTH 21 0
BBX 20 9 0 1
BITMAP
000200
000180
0001C0
FFFFF0
FFFFF0
0001E0
0001C0
000100
000200
ENDCHAR
STARTCHAR 2193
ENCODING 8595
SWIDTH 462 0
DWIDTH 9 0
BBX 8 18 0 -3
BITMAP
1C
1C
1C
1C
1C
1C
1C
1C
1C
1C
1C
1C
1C
FF
7F
3E
1C
08
ENDCHAR
STARTCHAR 2196
ENCODING 8598
SWIDTH 874 0
DWIDTH 17 0
BBX 14 14 1 0
BITMAP
FC00
F800
F000
F800
DC00
8E00
0700
0380
01C0
00E0
0070
0038
001C
0008
ENDCHAR
STARTCHAR 2197
ENCODING 8599
SWIDTH 771 0
DWIDTH 15 0
BBX 14 14 -1 0
BITMAP
00FC
007C
003C
007C
00EC
01C4
0380
0700
0E00
1C00
3800
7000
E000
4000
ENDCHAR
STARTCHAR 2198
ENCODING 8600
SWIDTH 874 0
DWIDTH 17 0
BBX 14 14 1 0
BITMAP
4000
E000
7000
3800
1C00
0E00
0700
0380
01C4
00EC
007C
003C
007C
00FC
ENDCHAR
STARTCHAR 2199
ENCODING 8601
SWIDTH 771 0
DWIDTH 15 0
BBX 14 14 1 0
BITMAP
0008
001C
0038
0070
00E0
01C0
0380
0700
8E00
DC00
F800
F000
F800
FC00
ENDCHAR
STARTCHAR 21A9
ENCODING 8617
SWIDTH 874 0
DWIDTH 17 0
BBX 16 12 0 1
BITMAP
00FC
00FE
0007
0803
1803
3803
7807
FFFE
FFFC
3800
1800
0800
ENDCHAR
STARTCHAR 21B0
ENCODING 8624
SWIDTH 822 0
DWIDTH 16 0
BBX 13 14 1 0
BITMAP
0800
1800
3800
7FF8
FFF8
7818
3818
0818
0018
0018
0018
0018
0018
0018
ENDCHAR
STARTCHAR 21B1
ENCODING 8625
SWIDTH 771 0
DWIDTH 15 0
BBX 13 14 1 0
BITMAP
0080
00C0
00E0
FFF8
FFF8
C0F0
C0E0
C0C0
C000
C000
C000
C000
C000
C000
ENDCHAR
STARTCHAR 21B2
ENCODING 8626
SWIDTH 771 0
DWIDTH 15 0
BBX 13 14 0 0
BITMAP
0018
0018
0018
0018
0018
0018
0818
3818
7818
FFF8
7FF8
3800
1800
0800
ENDCHAR
STARTCHAR 21B3
ENCODING 8627
SWIDTH 874 0
DWIDTH 17 0
BBX 14 14 1 0
BITMAP
E000
E000
E000
E000
E000
E000
E040
E060
E078
FFFC
FFF8
0070
0060
0040
ENDCHAR
STARTCHAR 21B4
ENCODING 8628
SWIDTH 822 0
DWIDTH 16 0
BBX 14 14 1 0
BITMAP
FFE0
FFE0
0060
0060
0060
0060
0060
0060
0060
03FC
01F8
00F0
0060
0020
ENDCHAR
STARTCHAR 21C6
ENCODING 8646
SWIDTH 1182 0
DWIDTH 23 0
BBX 19 16 2 -1
BITMAP
100000
300000
700000
FFFFE0
FFFFE0
700000
300000
100200
000300
000380
0003C0
FFFFE0
FFFFE0
0003C0
000300
000200
ENDCHAR
STARTCHAR 2202
ENCODING 8706
SWIDTH 617 0
DWIDTH 12 0
BBX 10 14 1 0
BITMAP
7E00
FF00
6780
01C0
01C0
3EC0
7FC0
F1C0
E0C0
C1C0
E1C0
F380
7F00
3E00
ENDCHAR
STARTCHAR 2206
ENCODING 8710
SWIDTH 668 0
DWIDTH 13 0
BBX 13 14 0 0
BITMAP
0700
0780
0F80
0F80
0DC0
1CC0
18E0
38E0
3860
3070
7070
7030
7FF8
FFF8
ENDCHAR
STARTCHAR 220F
ENCODING 8719
SWIDTH 668 0
DWIDTH 13 0
BBX 10 14 2 0
BITMAP
FFC0
FFC0
C1C0
C1C0
C1C0
C1C0
C1C0
C1C0
C1C0
C1C0
C1C0
C1C0
C1C0
C1C0
ENDCHAR
STARTCHAR 2211
ENCODING 8721
SWIDTH 565 0
DWIDTH 11 0
BBX 10 14 1 0
BITMAP
FFC0
FFC0
FFC0
7000
3C00
1E00
0F00
0F00
1E00
3800
7000
E000
FFC0
FFC0
ENDCHAR
STARTCHAR 2212
ENCODING 8722
SWIDTH 565 0
DWIDTH 11 0
BBX 9 2 1 5
BITMAP
FF80
FF80
ENDCHAR
STARTCHAR 2215
ENCODING 8725
SWIDTH 462 0
DWIDTH 9 0
BBX 8 13 0 0
BITMAP
03
03
06
06
0C
0C
18
18
38
30
70
60
E0
ENDCHAR
STARTCHAR 2219
ENCODING 8729
SWIDTH 308 0
DWIDTH 6 0
BBX 3 4 1 4
BITMAP
60
E0
E0
60
ENDCHAR
STARTCHAR 221A
ENCODING 8730
SWIDTH 720 0
DWIDTH 14 0
BBX 13 17 1 0
BITMAP
0078
00F8
00C0
00C0
01C0
0180
0180
C380
E300
6300
6700
7600
3600
3E00
3C00
1C00
1C00
ENDCHAR
STARTCHAR 221E
ENCODING 8734
SWIDTH 822 0
DWIDTH 16 0
BBX 14 7 1 2
BITMAP
7CF8
FFFC
C78C
C38C
E7CC
FFFC
3878
ENDCHAR
STARTCHAR 222B
ENCODING 8747
SWIDTH 360 0
DWIDTH 7 0
BBX 7 18 0 -4
BITMAP
0E
1E
38
38
38
38
38
38
38
38
38
38
38
38
38
38
F0
E0
ENDCHAR
STARTCHAR 2248
ENCODING 8776
SWIDTH 617 0
DWIDTH 12 0
BBX 10 7 1 2
BITMAP
7880
FFC0
0F80
0000
7C80
FFC0
8F80
ENDCHAR
STARTCHAR 2260
ENCODING 8800
SWIDTH 617 0
DWIDTH 12 0
BBX 10 9 1 1
BITMAP
0380
FFC0
FFC0
0C00
1C00
FFC0
FFC0
3000
6000
ENDCHAR
STARTCHAR 2264
ENCODING 8804
SWIDTH 565 0
DWIDTH 11 0
BBX 8 10 1 1
BITMAP
01
0F
7E
F0
FC
3F
07
00
FF
FF
ENDCHAR
STARTCHAR 2265
ENCODING 8805
SWIDTH 565 0
DWIDTH 11 0
BBX 9 10 1 1
BITMAP
C000
F800
7F00
0780
1F80
FC00
E000
0000
FF80
FF80
ENDCHAR
STARTCHAR 22C5
ENCODING 8901
SWIDTH 308 0
DWIDTH 6 0
BBX 3 4 1 4
BITMAP
60
E0
E0
60
ENDCHAR
STARTCHAR 24C5
ENCODING 9413
SWIDTH 822 0
DWIDTH 16 0
BBX 14 14 1 0
BITMAP
0FC0
3FE0
7038
6F98
CFCC
CCCC
8FCC
8F8C
CC0C
CC0C
6C18
7030
1FE0
0FC0
ENDCHAR
STARTCHAR 25A0
ENCODING 9632
SWIDTH 925 0
DWIDTH 18 0
BBX 14 14 2 0
BITMAP
FFFC
FFFC
FFFC
FFFC
FFFC
FFFC
FFFC
FFFC
FFFC
FFFC
FFFC
FFFC
FFFC
FFFC
ENDCHAR
STARTCHAR 25A1
ENCODING 9633
SWIDTH 925 0
DWIDTH 18 0
BBX 14 14 2 0
BITMAP
FFFC
FFFC
C01C
C01C
C01C
C01C
C01C
C01C
C01C
C01C
C01C
C01C
FFFC
FFFC
ENDCHAR
STARTCHAR 25B2
ENCODING 9650
SWIDTH 822 0
DWIDTH 16 0
BBX 16 14 0 0
BITMAP
0100
0180
01C0
03C0
03E0
07E0
0FF0
0FF8
1FF8
1FFC
3FFC
7FFE
7FFE
FFFF
ENDCHAR
STARTCHAR 25B3
ENCODING 9651
SWIDTH 822 0
DWIDTH 16 0
BBX 16 14 0 0
BITMAP
0100
0180
01C0
03C0
03E0
0760
0E70
0C38
1C38
181C
380C
700E
7FFE
FFFF
ENDCHAR
STARTCHAR 25CA
ENCODING 9674
SWIDTH 617 0
DWIDTH 12 0
BBX 10 14 1 0
BITMAP
1E00
1E00
3F00
3300
7380
E1C0
E1C0
E1C0
E1C0
7380
3300
3F00
1E00
1E00
ENDCHAR
STARTCHAR 25CB
ENCODING 9675
SWIDTH 822 0
DWIDTH 16 0
BBX 14 14 1 0
BITMAP
0FC0
3FE0
7870
6038
E01C
C00C
C00C
C00C
C00C
E01C
6038
7870
3FE0
0FC0
ENDCHAR
STARTCHAR 25CF
ENCODING 9679
SWIDTH 822 0
DWIDTH 16 0
BBX 14 14 1 0
BITMAP
0FC0
3FE0
7FF0
7FF8
FFFC
FFFC
FFFC
FFFC
FFFC
FFFC
7FF8
7FF0
3FE0
0FC0
ENDCHAR
STARTCHAR 262E
ENCODING 9774
SWIDTH 822 0
DWIDTH 16 0
BBX 14 14 1 0
BITMAP
0FC0
3FE0
7B70
6338
E31C
C30C
C78C
CFCC
DFEC
FB7C
6338
7B70
3FE0
0FC0
ENDCHAR
STARTCHAR 2713
ENCODING 10003
SWIDTH 925 0
DWIDTH 18 0
BBX 17 14 1 0
BITMAP
000100
000380
000700
000E00
001C00
003800
007000
C0E000
E1C000
738000
3F0000
1E0000
0C0000
080000
ENDCHAR
STARTCHAR 2715
ENCODING 10005
SWIDTH 771 0
DWIDTH 15 0
BBX 14 14 0 0
BITMAP
4008
E01C
7038
3870
1CE0
0FC0
0780
0780
0FC0
1CE0
3870
7038
E01C
4008
ENDCHAR
STARTCHAR 2780
ENCODING 10112
SWIDTH 822 0
DWIDTH 16 0
BBX 14 14 1 0
BITMAP
0FC0
1FE0
3030
6018
C30C
C70C
830C
830C
C30C
C30C
6018
7030
1FE0
0FC0
ENDCHAR
STARTCHAR 2781
ENCODING 10113
SWIDTH 822 0
DWIDTH 16 0
BBX 14 14 1 0
BITMAP
0FC0
3FE0
7038
6798
CFCC
CCCC
838C
C70C
CFCC
CFCC
6018
3030
1FE0
0FC0
ENDCHAR
STARTCHAR 2782
ENCODING 10114
SWIDTH 822 0
DWIDTH 16 0
BBX 14 14 1 0
BITMAP
0FC0
3FE0
7038
6FD8
CFCC
C18C
838C
C0CC
CCCC
CF8C
6318
3030
1FE0
0FC0
ENDCHAR
STARTCHAR 2783
ENCODING 10115
SWIDTH 822 0
DWIDTH 16 0
BBX 14 14 1 0
BITMAP
0FC0
1FE0
7030
6198
C38C
C78C
8D8C
9FCC
DFCC
C18C
6018
7030
1FE0
0FC0
ENDCHAR
STARTCHAR 2784
ENCODING 10116
SWIDTH 822 0
DWIDTH 16 0
BBX 14 14 1 0
BITMAP
0FC0
3FE0
7038
6798
C78C
CC0C
8F8C
C0CC
CCCC
CF8C
6318
3030
1FE0
0FC0
ENDCHAR
STARTCHAR 2785
ENCODING 10117
SWIDTH 822 0
DWIDTH 16 0
BBX 14 14 1 0
BITMAP
0FC0
1FE0
3030
6198
C78C
CC0C
8F8C
8CCC
CCCC
CF8C
6318
7030
1FE0
0FC0
ENDCHAR
STARTCHAR 2786
ENCODING 10118
SWIDTH 822 0
DWIDTH 16 0
BBX 14 14 1 0
BITMAP
0FC0
3FF0
7038
6FD8
CFCC
C18C
838C
C30C
C70C
C60C
6618
3030
1FE0
0FC0
ENDCHAR
STARTCHAR 2787
ENCODING 10119
SWIDTH 822 0
DWIDTH 16 0
BBX 14 14 1 0
BITMAP
0FC0
1FE0
3030
6218
CF8C
CCCC
878C
8FCC
CCCC
CFCC
6318
7030
1FE0
0FC0
ENDCHAR
STARTCHAR 2788
ENCODING 10120
SWIDTH 822 0
DWIDTH 16 0
BBX 14 14 1 0
BITMAP
0FC0
1FE0
3030
6318
C78C
CCCC
8CCC
87CC
C0CC
C78C
6618
7030
1FE0
0FC0
ENDCHAR
STARTCHAR E000
ENCODING 57344
SWIDTH 720 0
DWIDTH 14 0
BBX 14 14 0 0
BITMAP
1FFC
1FFC
1800
1800
1800
1800
1800
1800
1800
FF00
7E00
3E00
1C00
0800
ENDCHAR
STARTCHAR E001
ENCODING 57345
SWIDTH 1131 0
DWIDTH 22 0
BBX 20 14 1 0
BITMAP
01F000
07F800
0F1000
0E0180
1C03C0
1807E0
180FF0
FF0180
7E0380
3C0380
180700
010E00
01FC00
01F000
ENDCHAR
STARTCHAR E002
ENCODING 57346
SWIDTH 977 0
DWIDTH 19 0
BBX 17 14 1 0
BITMAP
0FC000
1FC000
380000
700C00
E01E00
C03F00
C07F80
C00C00
C00C00
E01C00
703800
387800
1FE000
0FC000
ENDCHAR
STARTCHAR FB00
ENCODING 64256
SWIDTH 668 0
DWIDTH 13 0
BBX 13 15 0 0
BITMAP
1E38
3E78
38E0
30E0
30E0
FFF8
FFF8
30E0
30E0
30E0
30E0
30E0
30E0
30E0
30E0
ENDCHAR
STARTCHAR FB01
ENCODING 64257
SWIDTH 617 0
DWIDTH 12 0
BBX 11 15 0 0
BITMAP
1EE0
3EE0
38E0
3000
3000
FFE0
FFE0
30E0
30E0
30E0
30E0
30E0
30E0
30E0
30E0
ENDCHAR
STARTCHAR FB02
ENCODING 64258
SWIDTH 617 0
DWIDTH 12 0
BBX 11 14 0 0
BITMAP
1EE0
3EE0
38E0
30E0
FFE0
FFE0
30E0
30E0
30E0
30E0
30E0
30E0
30E0
30E0
ENDCHAR
STARTCHAR FB03
ENCODING 64259
SWIDTH 977 0
DWIDTH 19 0
BBX 17 15 0 0
BITMAP
0E3980
3E7B80
38F180
30E000
30E000
FFFF80
FFFF80
30E180
30E180
30E180
30E180
30E180
30E180
30E180
30E180
ENDCHAR
STARTCHAR FB04
ENCODING 64260
SWIDTH 977 0
DWIDTH 19 0
BBX 17 14 0 0
BITMAP
1E7980
3E7980
38E180
30E180
FFFF80
FFFF80
30E180
30E180
30E180
30E180
30E180
30E180
30E180
30E180
ENDCHAR
STARTCHAR FEFF
ENCODING 65279
SWIDTH 0 0
DWIDTH 0 0
BBX 0 0 0 0
BITMAP
ENDCHAR
ENDFONT
